<?xml version="1.0" encoding="utf-8"?>
<!-- Generator: Adobe Illustrator 23.0.3, SVG Export Plug-In . SVG Version: 6.00 Build 0)  -->
<svg version="1.1" id="Layer_1" xmlns="http://www.w3.org/2000/svg" xmlns:xlink="http://www.w3.org/1999/xlink" x="0px" y="0px"
	 viewBox="0 0 141.07 36.21" style="enable-background:new 0 0 141.07 36.21;" xml:space="preserve">
<style type="text/css">
	.st0{fill:#1C375D;}
	.st1{fill:#FCD900;}
	.st2{fill:#03663B;}
	.st3{fill:#FFFFFF;}
	.st4{fill:#F6DF09;}
	.st5{fill:#595A5C;}
	.st6{fill:url(#SVGID_1_);}
	.st7{fill:url(#SVGID_2_);}
	.st8{fill:url(#SVGID_3_);}
	.st9{fill:#0473BB;}
	.st10{fill:#1B365D;}
	.st11{fill:#FDD900;}
	.st12{fill:#01663A;}
	.st13{fill:#FCE502;}
	.st14{fill:#046938;}
	.st15{fill:#02663C;}
	.st16{fill:#FAE300;}
	.st17{fill:#F4DE07;}
	.st18{fill:#1C395E;}
	.st19{fill:#0A683D;}
	.st20{fill:#F3DE09;}
	.st21{fill:#274B7A;}
	.st22{fill:url(#SVGID_4_);}
	.st23{fill:url(#SVGID_5_);}
	.st24{fill:url(#SVGID_6_);}
	.st25{fill:url(#SVGID_7_);}
	.st26{fill:url(#SVGID_8_);}
	.st27{fill:url(#SVGID_9_);}
</style>
<g>
	<g>
		<g>
			<g>
				<path class="st5" d="M84.5,8.46l1.95-5.52h1.34l1.95,5.52h-1.22l-0.37-1.13h-2.1l-0.36,1.13H84.5z M87.11,4.17l-0.73,2.22h1.46
					L87.11,4.17z"/>
				<rect x="90.39" y="2.94" class="st5" width="1.15" height="5.52"/>
				<path class="st5" d="M92.62,8.46V2.94h2.79c0.5,0,0.9,0.13,1.23,0.38c0.35,0.28,0.52,0.66,0.52,1.15c0,0.67-0.29,1.11-0.86,1.33
					c0.44,0.18,0.66,0.52,0.68,1.03L97,7.74c0,0.16,0.01,0.27,0.03,0.33c0.04,0.11,0.11,0.19,0.21,0.23v0.15h-1.27
					c-0.07-0.14-0.11-0.47-0.12-0.98V6.97c0-0.28-0.1-0.46-0.28-0.57c-0.14-0.08-0.35-0.12-0.66-0.12h-1.14v2.18H92.62z M93.77,5.35
					h1.34c0.6,0,0.89-0.24,0.89-0.73c0-0.49-0.28-0.72-0.84-0.72h-1.38V5.35z"/>
				<path class="st5" d="M98.17,8.46V2.94h2.31c1.28,0,1.93,0.58,1.93,1.73c0,1.21-0.65,1.82-1.93,1.82c-0.56,0-0.94,0-1.15,0.01
					v1.96H98.17z M99.32,5.54h0.96c0.64,0,0.96-0.29,0.96-0.86c0-0.53-0.32-0.78-0.96-0.78h-0.96V5.54z"/>
				<path class="st5" d="M105.48,8.61c-0.84,0-1.51-0.27-1.98-0.82c-0.45-0.52-0.68-1.2-0.68-2.06c0-0.87,0.22-1.57,0.67-2.09
					c0.47-0.57,1.13-0.84,1.98-0.84c0.85,0,1.51,0.28,1.98,0.84c0.45,0.53,0.67,1.23,0.67,2.09c0,0.85-0.22,1.54-0.67,2.06
					C106.98,8.34,106.31,8.61,105.48,8.61 M105.48,7.63c0.51,0,0.9-0.2,1.16-0.6c0.23-0.33,0.34-0.77,0.34-1.31
					c0-0.55-0.11-0.99-0.33-1.33c-0.26-0.41-0.65-0.62-1.16-0.62c-0.52,0-0.91,0.2-1.17,0.62c-0.22,0.34-0.33,0.79-0.33,1.33
					c0,0.54,0.11,0.98,0.33,1.31C104.57,7.43,104.96,7.63,105.48,7.63"/>
				<path class="st5" d="M108.88,8.46V2.94h2.78c0.5,0,0.91,0.13,1.23,0.38c0.35,0.28,0.53,0.66,0.53,1.15
					c0,0.67-0.29,1.11-0.86,1.33c0.43,0.18,0.65,0.52,0.67,1.03l0.03,0.9c0,0.16,0.01,0.27,0.03,0.33c0.03,0.11,0.1,0.19,0.2,0.23
					v0.15h-1.27c-0.07-0.14-0.11-0.47-0.11-0.98V6.97c0-0.28-0.1-0.46-0.28-0.57c-0.14-0.08-0.36-0.12-0.66-0.12h-1.15v2.18H108.88z
					 M110.03,5.35h1.34c0.59,0,0.89-0.24,0.89-0.73c0-0.49-0.29-0.72-0.85-0.72h-1.38V5.35z"/>
				<polygon class="st5" points="115.62,8.46 115.62,3.93 113.95,3.93 113.95,2.94 118.44,2.94 118.44,3.93 116.77,3.93 
					116.77,8.46 				"/>
				<path class="st5" d="M122.12,4.6c-0.02-0.29-0.15-0.51-0.39-0.66c-0.21-0.13-0.47-0.2-0.78-0.2c-0.26,0-0.47,0.06-0.64,0.17
					c-0.19,0.13-0.29,0.31-0.29,0.57c0,0.21,0.18,0.38,0.55,0.51c0.07,0.03,0.34,0.09,0.8,0.2c0.69,0.15,1.16,0.31,1.41,0.48
					c0.4,0.27,0.6,0.69,0.6,1.27c0,0.58-0.24,1.02-0.73,1.31c-0.41,0.25-0.92,0.38-1.54,0.38c-0.65,0-1.17-0.15-1.56-0.44
					c-0.44-0.31-0.67-0.79-0.7-1.43h1.11c0.03,0.62,0.41,0.92,1.15,0.92c0.3,0,0.55-0.04,0.75-0.13c0.28-0.11,0.43-0.29,0.43-0.54
					c0-0.25-0.14-0.44-0.41-0.57c-0.11-0.05-0.35-0.12-0.75-0.2c-0.73-0.16-1.22-0.31-1.47-0.45c-0.48-0.27-0.72-0.68-0.72-1.23
					c0-0.58,0.22-1.03,0.66-1.34c0.39-0.27,0.89-0.4,1.49-0.4c0.59,0,1.08,0.15,1.47,0.45c0.42,0.32,0.65,0.78,0.68,1.35H122.12z"/>
				<path class="st5" d="M89.6,14.75c-0.07,0.65-0.32,1.16-0.75,1.53c-0.43,0.37-0.98,0.56-1.63,0.56c-0.82,0-1.46-0.28-1.92-0.85
					c-0.41-0.51-0.62-1.2-0.62-2.03c0-0.85,0.2-1.54,0.61-2.07c0.46-0.58,1.1-0.87,1.92-0.87c0.64,0,1.17,0.17,1.61,0.52
					c0.44,0.34,0.7,0.82,0.77,1.45h-1.15c-0.04-0.31-0.18-0.55-0.41-0.73c-0.22-0.16-0.49-0.24-0.81-0.24
					c-0.49,0-0.85,0.21-1.09,0.63c-0.19,0.34-0.28,0.77-0.28,1.3c0,0.52,0.09,0.94,0.28,1.28c0.24,0.41,0.6,0.61,1.09,0.61
					c0.34,0,0.61-0.09,0.83-0.29c0.22-0.2,0.35-0.46,0.39-0.79H89.6z"/>
				<path class="st5" d="M92.66,16.83c-0.85,0-1.5-0.27-1.97-0.83c-0.45-0.51-0.68-1.2-0.68-2.05c0-0.87,0.23-1.56,0.67-2.09
					c0.47-0.56,1.13-0.84,1.98-0.84c0.85,0,1.52,0.28,1.98,0.84c0.45,0.53,0.67,1.23,0.67,2.09c0,0.86-0.22,1.54-0.67,2.05
					C94.16,16.56,93.5,16.83,92.66,16.83 M92.66,15.85c0.52,0,0.9-0.2,1.16-0.59c0.23-0.33,0.34-0.77,0.34-1.31
					c0-0.55-0.11-0.99-0.33-1.34C93.57,12.2,93.19,12,92.66,12c-0.52,0-0.9,0.2-1.17,0.61c-0.22,0.35-0.33,0.79-0.33,1.34
					c0,0.54,0.11,0.98,0.33,1.31C91.76,15.65,92.15,15.85,92.66,15.85"/>
				<path class="st5" d="M96.07,16.68v-5.52h2.78c0.5,0,0.91,0.13,1.23,0.38c0.35,0.28,0.52,0.67,0.52,1.15
					c0,0.67-0.28,1.11-0.86,1.33c0.44,0.18,0.66,0.52,0.68,1.04l0.03,0.9c0,0.16,0.01,0.26,0.03,0.33c0.03,0.1,0.11,0.18,0.21,0.23
					v0.15h-1.27c-0.07-0.14-0.11-0.47-0.12-0.98v-0.51c0-0.27-0.1-0.46-0.28-0.57c-0.14-0.08-0.36-0.12-0.65-0.12h-1.15v2.18H96.07z
					 M97.23,13.57h1.33c0.6,0,0.89-0.24,0.89-0.73c0-0.48-0.28-0.72-0.84-0.72h-1.38V13.57z"/>
				<path class="st5" d="M101.62,16.68v-5.52h2.31c1.28,0,1.93,0.57,1.93,1.73c0,1.22-0.65,1.82-1.93,1.82c-0.56,0-0.94,0-1.15,0.01
					v1.96H101.62z M102.77,13.76h0.96c0.64,0,0.97-0.29,0.97-0.86c0-0.53-0.33-0.79-0.97-0.79h-0.96V13.76z"/>
				<path class="st5" d="M108.93,16.83c-0.85,0-1.51-0.27-1.98-0.83c-0.45-0.51-0.67-1.2-0.67-2.05c0-0.87,0.22-1.56,0.67-2.09
					c0.47-0.56,1.13-0.84,1.99-0.84c0.85,0,1.51,0.28,1.98,0.84c0.45,0.53,0.68,1.23,0.68,2.09c0,0.86-0.23,1.54-0.68,2.05
					C110.43,16.56,109.76,16.83,108.93,16.83 M108.93,15.85c0.51,0,0.9-0.2,1.16-0.59c0.23-0.33,0.34-0.77,0.34-1.31
					c0-0.55-0.11-0.99-0.33-1.34c-0.26-0.4-0.65-0.61-1.17-0.61c-0.52,0-0.91,0.2-1.17,0.61c-0.22,0.35-0.33,0.79-0.33,1.34
					c0,0.54,0.11,0.98,0.33,1.31C108.02,15.65,108.41,15.85,108.93,15.85"/>
				<path class="st5" d="M112.33,16.68v-5.52h2.78c0.5,0,0.91,0.13,1.23,0.38c0.34,0.28,0.52,0.67,0.52,1.15
					c0,0.67-0.29,1.11-0.86,1.33c0.43,0.18,0.66,0.52,0.68,1.04l0.03,0.9c0,0.16,0.01,0.26,0.03,0.33c0.04,0.1,0.11,0.18,0.21,0.23
					v0.15h-1.26c-0.07-0.14-0.12-0.47-0.12-0.98v-0.51c0-0.27-0.1-0.46-0.28-0.57c-0.14-0.08-0.36-0.12-0.66-0.12h-1.15v2.18H112.33
					z M113.48,13.57h1.34c0.59,0,0.89-0.24,0.89-0.73c0-0.48-0.28-0.72-0.85-0.72h-1.38V13.57z"/>
				<path class="st5" d="M117.45,16.68l1.95-5.52h1.34l1.95,5.52h-1.22l-0.37-1.12H119l-0.35,1.12H117.45z M120.06,12.38l-0.73,2.22
					h1.47L120.06,12.38z"/>
				<polygon class="st5" points="124.62,16.68 124.62,12.15 122.95,12.15 122.95,11.16 127.44,11.16 127.44,12.15 125.77,12.15 
					125.77,16.68 				"/>
				<rect x="128.03" y="11.16" class="st5" width="1.16" height="5.52"/>
				<path class="st5" d="M132.45,16.83c-0.85,0-1.51-0.27-1.98-0.83c-0.45-0.51-0.68-1.2-0.68-2.05c0-0.87,0.22-1.56,0.67-2.09
					c0.47-0.56,1.13-0.84,1.99-0.84c0.85,0,1.51,0.28,1.98,0.84c0.44,0.53,0.67,1.23,0.67,2.09c0,0.86-0.22,1.54-0.68,2.05
					C133.94,16.56,133.29,16.83,132.45,16.83 M132.45,15.85c0.51,0,0.89-0.2,1.16-0.59c0.23-0.33,0.34-0.77,0.34-1.31
					c0-0.55-0.11-0.99-0.33-1.34c-0.26-0.4-0.65-0.61-1.16-0.61c-0.52,0-0.91,0.2-1.18,0.61c-0.22,0.35-0.33,0.79-0.33,1.34
					c0,0.54,0.11,0.98,0.33,1.31C131.54,15.65,131.93,15.85,132.45,15.85"/>
				<polygon class="st5" points="136.87,16.68 135.8,16.68 135.8,11.16 137,11.16 139.22,15.04 139.22,11.16 140.29,11.16 
					140.29,16.68 139.14,16.68 136.87,12.71 				"/>
				<path class="st5" d="M87.11,25.05c-0.84,0-1.5-0.27-1.98-0.82c-0.45-0.52-0.67-1.2-0.67-2.06c0-0.86,0.22-1.56,0.67-2.09
					c0.47-0.56,1.14-0.84,1.98-0.84c0.85,0,1.51,0.28,1.98,0.84c0.45,0.53,0.67,1.23,0.67,2.09c0,0.86-0.22,1.55-0.68,2.06
					C88.62,24.78,87.96,25.05,87.11,25.05 M87.11,24.07c0.51,0,0.9-0.2,1.16-0.59c0.23-0.33,0.34-0.77,0.34-1.31
					c0-0.55-0.11-0.99-0.33-1.34c-0.26-0.41-0.66-0.62-1.17-0.62c-0.51,0-0.9,0.21-1.17,0.62c-0.22,0.34-0.33,0.79-0.33,1.34
					c0,0.54,0.12,0.98,0.33,1.31C86.21,23.87,86.6,24.07,87.11,24.07"/>
				<polygon class="st5" points="90.52,24.9 90.52,19.38 94.45,19.38 94.45,20.37 91.68,20.37 91.68,21.63 94.09,21.63 94.09,22.56 
					91.68,22.56 91.68,24.9 				"/>
				<polygon class="st5" points="97.04,19.38 98.26,19.38 99.47,23.61 100.68,19.38 101.87,19.38 100,24.9 98.91,24.9 				"/>
				<rect x="102.51" y="19.38" class="st5" width="1.15" height="5.52"/>
				<polygon class="st5" points="104.51,24.9 104.51,19.38 108.58,19.38 108.58,20.37 105.67,20.37 105.67,21.54 108.37,21.54 
					108.37,22.49 105.67,22.49 105.67,23.92 108.7,23.92 108.7,24.9 				"/>
				<polygon class="st5" points="111.06,24.9 111.06,20.37 109.39,20.37 109.39,19.38 113.87,19.38 113.87,20.37 112.21,20.37 
					112.21,24.9 				"/>
				<polygon class="st5" points="115.58,24.9 114.51,24.9 114.51,19.38 115.71,19.38 117.93,23.26 117.93,19.38 119,19.38 119,24.9 
					117.85,24.9 115.58,20.94 				"/>
				<path class="st5" d="M119.67,24.9l1.96-5.52h1.34l1.95,5.52h-1.22l-0.37-1.12h-2.11l-0.35,1.12H119.67z M122.28,20.61
					l-0.73,2.22h1.47L122.28,20.61z"/>
				<polygon class="st5" points="126.68,24.9 125.61,24.9 125.61,19.38 127.3,19.38 128.29,23.74 129.28,19.38 130.96,19.38 
					130.96,24.9 129.87,24.9 129.87,20.26 128.85,24.9 127.71,24.9 126.68,20.16 				"/>
			</g>
			<rect x="78.28" class="st5" width="0.68" height="27.69"/>
		</g>
		<g>
			
				<linearGradient id="SVGID_1_" gradientUnits="userSpaceOnUse" x1="-3081.1448" y1="-54.5165" x2="-3081.1448" y2="-77.1356" gradientTransform="matrix(1 0 0 1 3095.0852 76.832)">
				<stop  offset="0" style="stop-color:#0751A0"/>
				<stop  offset="0.2526" style="stop-color:#065DA8"/>
				<stop  offset="0.7784" style="stop-color:#127ABE"/>
				<stop  offset="1" style="stop-color:#1589CA"/>
			</linearGradient>
			<path class="st6" d="M13.94,10.7l2.17,6.33h-4.34L13.94,10.7z M16.64,2.81h-5.4H9.38L1.81,24.89h7.26l1.14-3.31h7.47l1.13,3.31
				h7.26L18.49,2.81H16.64z"/>
			
				<linearGradient id="SVGID_2_" gradientUnits="userSpaceOnUse" x1="-3057.9512" y1="-51.2895" x2="-3057.9512" y2="-75.3161" gradientTransform="matrix(1 0 0 1 3095.0852 76.832)">
				<stop  offset="0" style="stop-color:#0751A0"/>
				<stop  offset="0.2526" style="stop-color:#065DA8"/>
				<stop  offset="0.7784" style="stop-color:#127ABE"/>
				<stop  offset="1" style="stop-color:#1589CA"/>
			</linearGradient>
			<path class="st7" d="M28.92,5.02c-2.21,2.23-3.31,5.16-3.31,8.79c0,3.74,1.08,6.7,3.25,8.86c2.17,2.16,5.14,3.25,8.92,3.25
				c3.04,0,5.54-0.84,7.51-2.53c1.83-1.57,2.95-3.69,3.37-6.36h-7.25c-0.46,2.19-1.71,3.28-3.76,3.28c-1.74,0-2.98-0.64-3.69-1.92
				c-0.55-0.97-0.83-2.42-0.83-4.33c0-4.46,1.41-6.69,4.24-6.69c2.36,0,3.7,1.13,4.03,3.38h7.14c-0.35-2.81-1.47-4.99-3.35-6.55
				c-1.97-1.62-4.68-2.44-8.14-2.44C33.78,1.77,31.06,2.85,28.92,5.02"/>
			
				<linearGradient id="SVGID_3_" gradientUnits="userSpaceOnUse" x1="-3034.3794" y1="-53.1689" x2="-3034.3794" y2="-75.8389" gradientTransform="matrix(1 0 0 1 3095.0852 76.832)">
				<stop  offset="0" style="stop-color:#0751A0"/>
				<stop  offset="0.2526" style="stop-color:#065DA8"/>
				<stop  offset="0.7784" style="stop-color:#127ABE"/>
				<stop  offset="1" style="stop-color:#1589CA"/>
			</linearGradient>
			<polygon class="st8" points="65.63,2.82 60.7,17.17 55.78,2.82 48.52,2.82 56.1,24.9 65.31,24.9 72.89,2.82 			"/>
		</g>
	</g>
	<g>
		<path class="st9" d="M1.95,32.25v3.05h-0.8v-3.05H0V31.6h3.1v0.65H1.95z"/>
		<path class="st9" d="M3.42,33.44c0-0.53,0.12-0.95,0.36-1.27c0.19-0.26,0.44-0.44,0.77-0.55c0.23-0.08,0.47-0.12,0.71-0.12
			c0.24,0,0.47,0.04,0.69,0.12c0.32,0.12,0.58,0.3,0.77,0.55c0.24,0.32,0.36,0.75,0.36,1.28c0,0.53-0.12,0.95-0.36,1.28
			c-0.19,0.25-0.44,0.44-0.77,0.56c-0.23,0.08-0.46,0.12-0.69,0.12c-0.25,0-0.48-0.04-0.7-0.12c-0.32-0.12-0.58-0.3-0.77-0.55
			C3.54,34.4,3.42,33.97,3.42,33.44z M4.22,33.44c0,0.47,0.12,0.81,0.35,1.04c0.18,0.17,0.41,0.26,0.69,0.26
			c0.27,0,0.49-0.09,0.67-0.26c0.24-0.23,0.35-0.57,0.35-1.04c0-0.46-0.12-0.81-0.35-1.03c-0.18-0.17-0.41-0.26-0.67-0.26
			c-0.27,0-0.5,0.09-0.68,0.26C4.33,32.64,4.22,32.98,4.22,33.44z M5.58,30.47l0.6,0.75H5.59L5.25,30.8l-0.34,0.42H4.32l0.61-0.75
			H5.58z M6.22,30.65H5.84c0-0.16,0.02-0.28,0.05-0.36c0.03-0.08,0.09-0.16,0.19-0.23c0.1-0.07,0.15-0.14,0.15-0.21
			c0-0.07-0.02-0.12-0.06-0.15c-0.04-0.03-0.08-0.05-0.14-0.05c-0.08,0-0.14,0.02-0.17,0.07c-0.03,0.04-0.05,0.11-0.05,0.2
			l-0.41,0.01c0-0.22,0.07-0.39,0.2-0.49c0.11-0.09,0.25-0.13,0.41-0.13c0.14,0,0.27,0.03,0.37,0.08c0.18,0.09,0.27,0.24,0.27,0.45
			c0,0.1-0.02,0.18-0.07,0.25c-0.05,0.07-0.12,0.13-0.22,0.2C6.27,30.36,6.22,30.48,6.22,30.65z"/>
		<path class="st9" d="M9.8,31.6h0.74v3.7h-0.8L8.2,32.66L8.19,35.3H7.44v-3.7h0.84l1.5,2.58L9.8,31.6z"/>
		<path class="st9" d="M13.13,33.93V33.3h1.59v2h-0.53l-0.08-0.46c-0.16,0.17-0.29,0.29-0.4,0.37c-0.22,0.13-0.48,0.2-0.78,0.2
			c-0.49,0-0.89-0.16-1.21-0.49c-0.36-0.36-0.54-0.84-0.54-1.46c0-0.55,0.15-1,0.45-1.36c0.34-0.4,0.81-0.6,1.42-0.6
			c0.53,0,0.95,0.14,1.27,0.43c0.27,0.24,0.4,0.51,0.4,0.81h-0.8c0-0.11-0.07-0.22-0.2-0.35c-0.17-0.17-0.38-0.25-0.63-0.25
			c-0.31,0-0.56,0.1-0.76,0.31c-0.22,0.24-0.33,0.58-0.33,1.02c0,0.46,0.12,0.8,0.35,1.01c0.19,0.18,0.44,0.26,0.76,0.26
			c0.23,0,0.43-0.07,0.6-0.22c0.16-0.15,0.27-0.34,0.33-0.6H13.13z"/>
		<path class="st9" d="M20.15,32.81h-0.8c-0.05-0.18-0.12-0.31-0.2-0.4c-0.14-0.16-0.36-0.24-0.64-0.24c-0.25,0-0.45,0.08-0.62,0.25
			c-0.22,0.22-0.33,0.57-0.33,1.05c0,0.36,0.07,0.65,0.22,0.88c0.17,0.25,0.41,0.38,0.73,0.38c0.22,0,0.4-0.06,0.55-0.18
			c0.15-0.12,0.24-0.29,0.29-0.51h0.8c-0.08,0.42-0.26,0.75-0.53,0.98c-0.29,0.26-0.67,0.39-1.13,0.39c-0.52,0-0.94-0.17-1.25-0.5
			c-0.33-0.35-0.49-0.83-0.49-1.45c0-0.63,0.17-1.11,0.51-1.46c0.32-0.33,0.73-0.49,1.24-0.49c0.52,0,0.94,0.15,1.25,0.45
			C20.02,32.2,20.15,32.49,20.15,32.81z"/>
		<path class="st9" d="M20.61,33.44c0-0.53,0.12-0.95,0.36-1.27c0.19-0.26,0.44-0.44,0.77-0.55c0.23-0.08,0.47-0.12,0.71-0.12
			c0.24,0,0.47,0.04,0.69,0.12c0.32,0.12,0.58,0.3,0.77,0.55c0.24,0.32,0.36,0.75,0.36,1.28c0,0.53-0.12,0.95-0.36,1.28
			c-0.19,0.25-0.44,0.44-0.77,0.56c-0.23,0.08-0.46,0.12-0.69,0.12c-0.25,0-0.48-0.04-0.7-0.12c-0.32-0.12-0.58-0.3-0.77-0.55
			C20.74,34.4,20.61,33.97,20.61,33.44z M21.41,33.44c0,0.47,0.12,0.81,0.35,1.04c0.18,0.17,0.41,0.26,0.69,0.26
			c0.27,0,0.49-0.09,0.67-0.26c0.24-0.23,0.35-0.57,0.35-1.04c0-0.46-0.12-0.81-0.35-1.03c-0.18-0.17-0.41-0.26-0.67-0.26
			c-0.27,0-0.5,0.09-0.68,0.26C21.53,32.64,21.41,32.98,21.41,33.44z M22.77,30.47l0.6,0.75h-0.59l-0.34-0.42l-0.34,0.42h-0.59
			l0.61-0.75H22.77z"/>
		<path class="st9" d="M26.99,31.6h0.74v3.7h-0.8l-1.55-2.64l-0.01,2.64h-0.74v-3.7h0.84l1.5,2.58L26.99,31.6z"/>
		<path class="st9" d="M30.33,33.93V33.3h1.59v2h-0.53l-0.08-0.46c-0.16,0.17-0.29,0.29-0.4,0.37c-0.22,0.13-0.48,0.2-0.78,0.2
			c-0.49,0-0.89-0.16-1.21-0.49c-0.36-0.36-0.54-0.84-0.54-1.46c0-0.55,0.15-1,0.45-1.36c0.34-0.4,0.81-0.6,1.42-0.6
			c0.53,0,0.95,0.14,1.27,0.43c0.27,0.24,0.4,0.51,0.4,0.81h-0.8c0-0.11-0.07-0.22-0.2-0.35c-0.17-0.17-0.38-0.25-0.63-0.25
			c-0.31,0-0.56,0.1-0.76,0.31c-0.22,0.24-0.33,0.58-0.33,1.02c0,0.46,0.12,0.8,0.35,1.01c0.19,0.18,0.44,0.26,0.76,0.26
			c0.23,0,0.43-0.07,0.6-0.22c0.16-0.15,0.27-0.34,0.33-0.6H30.33z"/>
		<path class="st9" d="M35.74,32.25v3.05h-0.8v-3.05h-1.15V31.6h3.1v0.65H35.74z"/>
		<path class="st9" d="M39.18,33.91v1.39h-0.8v-1.4l-1.32-2.3H38l0.8,1.61l0.75-1.61h0.9L39.18,33.91z"/>
		<path class="st9" d="M45.61,32.81h-0.8c-0.05-0.18-0.12-0.31-0.2-0.4c-0.14-0.16-0.36-0.24-0.64-0.24c-0.25,0-0.45,0.08-0.62,0.25
			c-0.22,0.22-0.33,0.57-0.33,1.05c0,0.36,0.07,0.65,0.22,0.88c0.17,0.25,0.41,0.38,0.73,0.38c0.22,0,0.4-0.06,0.55-0.18
			c0.15-0.12,0.24-0.29,0.29-0.51h0.8c-0.08,0.42-0.26,0.75-0.53,0.98c-0.29,0.26-0.67,0.39-1.13,0.39c-0.52,0-0.94-0.17-1.25-0.5
			c-0.33-0.35-0.49-0.83-0.49-1.45c0-0.63,0.17-1.11,0.51-1.46c0.32-0.33,0.73-0.49,1.24-0.49c0.52,0,0.94,0.15,1.25,0.45
			C45.48,32.2,45.61,32.49,45.61,32.81z"/>
		<path class="st9" d="M46.96,34.54L46.7,35.3h-0.84l1.36-3.7h0.92l1.34,3.7h-0.86l-0.24-0.76H46.96z M47.87,31.26h-0.38
			c0-0.16,0.02-0.28,0.05-0.36c0.03-0.08,0.09-0.16,0.19-0.23c0.1-0.07,0.15-0.14,0.15-0.21c0-0.07-0.02-0.12-0.06-0.15
			c-0.04-0.03-0.08-0.05-0.14-0.05c-0.08,0-0.14,0.02-0.17,0.07c-0.03,0.04-0.05,0.11-0.05,0.2l-0.41,0.01
			c0-0.22,0.07-0.39,0.2-0.49c0.11-0.09,0.25-0.13,0.41-0.13c0.14,0,0.27,0.03,0.37,0.08c0.18,0.09,0.28,0.24,0.28,0.45
			c0,0.1-0.02,0.18-0.07,0.25c-0.05,0.07-0.12,0.13-0.22,0.2C47.92,30.97,47.87,31.09,47.87,31.26z M47.17,33.9h0.98l-0.48-1.46
			L47.17,33.9z"/>
		<path class="st9" d="M52.2,31.6h0.74v3.7h-0.8l-1.55-2.64l-0.01,2.64h-0.74v-3.7h0.84l1.5,2.58L52.2,31.6z"/>
		<path class="st9" d="M55.54,33.93V33.3h1.59v2H56.6l-0.08-0.46c-0.16,0.17-0.29,0.29-0.4,0.37c-0.22,0.13-0.48,0.2-0.78,0.2
			c-0.49,0-0.89-0.16-1.21-0.49c-0.36-0.36-0.54-0.84-0.54-1.46c0-0.55,0.15-1,0.45-1.36c0.34-0.4,0.81-0.6,1.42-0.6
			c0.53,0,0.95,0.14,1.27,0.43c0.27,0.24,0.4,0.51,0.4,0.81h-0.8c0-0.11-0.07-0.22-0.2-0.35c-0.17-0.17-0.38-0.25-0.63-0.25
			c-0.31,0-0.56,0.1-0.76,0.31c-0.22,0.24-0.33,0.58-0.33,1.02c0,0.46,0.12,0.8,0.35,1.01c0.19,0.18,0.44,0.26,0.76,0.26
			c0.23,0,0.43-0.07,0.6-0.22c0.16-0.15,0.27-0.34,0.33-0.6H55.54z"/>
		<path class="st9" d="M61.59,33.64h-1.49v1.66h-0.8v-3.7h0.8V33h1.49v-1.4h0.8v3.7h-0.8V33.64z"/>
		<path class="st9" d="M63.91,34.54l-0.26,0.76h-0.84l1.36-3.7h0.92l1.34,3.7h-0.86l-0.24-0.76H63.91z M64.33,31.23l-0.78-0.75h0.82
			l0.5,0.75H64.33z M64.12,33.9h0.98l-0.48-1.46L64.12,33.9z"/>
		<path class="st9" d="M69.15,31.6h0.74v3.7h-0.8l-1.55-2.64l-0.01,2.64H66.8v-3.7h0.84l1.5,2.58L69.15,31.6z"/>
		<path class="st9" d="M72.49,33.93V33.3h1.59v2h-0.53l-0.08-0.46c-0.16,0.17-0.29,0.29-0.4,0.37c-0.22,0.13-0.48,0.2-0.78,0.2
			c-0.49,0-0.89-0.16-1.21-0.49c-0.36-0.36-0.54-0.84-0.54-1.46c0-0.55,0.15-1,0.45-1.36c0.34-0.4,0.81-0.6,1.42-0.6
			c0.53,0,0.95,0.14,1.27,0.43c0.27,0.24,0.4,0.51,0.4,0.81h-0.8c0-0.11-0.07-0.22-0.2-0.35c-0.17-0.17-0.38-0.25-0.63-0.25
			c-0.31,0-0.56,0.1-0.76,0.31c-0.22,0.24-0.33,0.58-0.33,1.02c0,0.46,0.12,0.8,0.35,1.01c0.19,0.18,0.44,0.26,0.76,0.26
			c0.23,0,0.43-0.07,0.6-0.22c0.16-0.15,0.27-0.34,0.33-0.6H72.49z"/>
		<path class="st9" d="M77.14,34.04v1.26h-0.8v-3.7h0.8v1.51l1.45-1.51h1.03l-1.56,1.52l1.64,2.18h-1.02l-1.18-1.63L77.14,34.04z"/>
		<path class="st9" d="M82.41,33.64h-1.49v1.66h-0.8v-3.7h0.8V33h1.49v-1.4h0.8v3.7h-0.8V33.64z"/>
		<path class="st9" d="M83.84,33.44c0-0.53,0.12-0.95,0.36-1.27c0.19-0.26,0.44-0.44,0.77-0.55c0.23-0.08,0.47-0.12,0.71-0.12
			c0.24,0,0.47,0.04,0.69,0.12c0.33,0.12,0.58,0.3,0.77,0.55c0.24,0.32,0.36,0.75,0.36,1.28c0,0.53-0.12,0.95-0.36,1.28
			c-0.19,0.25-0.44,0.44-0.77,0.56c-0.23,0.08-0.46,0.12-0.69,0.12c-0.24,0-0.48-0.04-0.7-0.12c-0.32-0.12-0.58-0.3-0.77-0.55
			C83.96,34.4,83.84,33.97,83.84,33.44z M84.63,33.44c0,0.47,0.12,0.81,0.35,1.04c0.18,0.17,0.41,0.26,0.69,0.26
			c0.27,0,0.49-0.09,0.67-0.26c0.24-0.23,0.35-0.57,0.35-1.04c0-0.46-0.12-0.81-0.35-1.03c-0.18-0.17-0.41-0.26-0.67-0.26
			c-0.27,0-0.5,0.09-0.68,0.26C84.75,32.64,84.63,32.98,84.63,33.44z M86,30.47l0.6,0.75h-0.59l-0.34-0.42l-0.34,0.42h-0.59
			l0.61-0.75H86z"/>
		<path class="st9" d="M90.21,31.6h0.74v3.7h-0.8l-1.55-2.64L88.6,35.3h-0.74v-3.7h0.84l1.5,2.58L90.21,31.6z"/>
		<path class="st9" d="M93.55,33.93V33.3h1.59v2h-0.53l-0.08-0.46c-0.16,0.17-0.29,0.29-0.4,0.37c-0.22,0.13-0.48,0.2-0.78,0.2
			c-0.49,0-0.89-0.16-1.21-0.49c-0.36-0.36-0.54-0.84-0.54-1.46c0-0.55,0.15-1,0.45-1.36c0.34-0.4,0.81-0.6,1.42-0.6
			c0.53,0,0.95,0.14,1.27,0.43c0.27,0.24,0.4,0.51,0.4,0.81h-0.8c0-0.11-0.07-0.22-0.2-0.35c-0.17-0.17-0.38-0.25-0.63-0.25
			c-0.31,0-0.56,0.1-0.76,0.31c-0.22,0.24-0.33,0.58-0.33,1.02c0,0.46,0.12,0.8,0.35,1.01c0.19,0.18,0.44,0.26,0.76,0.26
			c0.23,0,0.43-0.07,0.6-0.22c0.16-0.15,0.27-0.34,0.33-0.6H93.55z"/>
		<path class="st9" d="M99.55,31.6h0.83l-1.29,3.7h-0.75l-1.28-3.7h0.85l0.82,2.8L99.55,31.6z"/>
		<path class="st9" d="M101.64,31.6v3.7h-0.8v-3.7H101.64z"/>
		<path class="st9" d="M105.14,31.6v0.65h-2.01v0.78h1.86v0.65h-1.86v0.96h2.11v0.66h-2.89v-3.7H105.14z M104.11,30.47l0.61,0.75
			h-0.6l-0.34-0.42l-0.34,0.42h-0.59l0.6-0.75H104.11z M104.09,35.61v0.6h-0.67v-0.6H104.09z"/>
		<path class="st9" d="M107.53,32.25v3.05h-0.8v-3.05h-1.15V31.6h3.1v0.65H107.53z"/>
		<path class="st9" d="M112.92,31.6h0.74v3.7h-0.8l-1.55-2.64l-0.01,2.64h-0.74v-3.7h0.84l1.5,2.58L112.92,31.6z"/>
		<path class="st9" d="M115.18,34.54l-0.26,0.76h-0.84l1.36-3.7h0.92l1.34,3.7h-0.86l-0.24-0.76H115.18z M115.39,33.9h0.98
			l-0.48-1.46L115.39,33.9z"/>
		<path class="st9" d="M121.76,31.6v3.7h-0.74v-3.09l-0.72,3.09h-0.78l-0.69-3.09l-0.01,3.09h-0.74v-3.7h1.15l0.69,2.92l0.69-2.92
			H121.76z"/>
		<path class="st9" d="M125.21,33.51v0.67h-1.47v-0.67H125.21z"/>
		<path class="st9" d="M130.37,32.81h-0.8c-0.05-0.18-0.12-0.31-0.2-0.4c-0.15-0.16-0.36-0.24-0.64-0.24
			c-0.25,0-0.45,0.08-0.62,0.25c-0.22,0.22-0.33,0.57-0.33,1.05c0,0.36,0.07,0.65,0.22,0.88c0.17,0.25,0.41,0.38,0.73,0.38
			c0.22,0,0.4-0.06,0.55-0.18c0.15-0.12,0.24-0.29,0.29-0.51h0.8c-0.08,0.42-0.26,0.75-0.53,0.98c-0.29,0.26-0.67,0.39-1.13,0.39
			c-0.52,0-0.94-0.17-1.25-0.5c-0.33-0.35-0.49-0.83-0.49-1.45c0-0.63,0.17-1.11,0.51-1.46c0.32-0.33,0.73-0.49,1.24-0.49
			c0.52,0,0.94,0.15,1.25,0.45C130.24,32.2,130.37,32.49,130.37,32.81z"/>
		<path class="st9" d="M132.63,32.25v3.05h-0.8v-3.05h-1.15V31.6h3.1v0.65H132.63z"/>
		<path class="st9" d="M137.5,32.81h-0.8c-0.05-0.18-0.12-0.31-0.2-0.4c-0.15-0.16-0.36-0.24-0.64-0.24c-0.25,0-0.45,0.08-0.62,0.25
			c-0.22,0.22-0.33,0.57-0.33,1.05c0,0.36,0.07,0.65,0.22,0.88c0.17,0.25,0.41,0.38,0.73,0.38c0.22,0,0.4-0.06,0.55-0.18
			c0.15-0.12,0.24-0.29,0.29-0.51h0.8c-0.08,0.42-0.26,0.75-0.53,0.98c-0.29,0.26-0.67,0.39-1.13,0.39c-0.52,0-0.94-0.17-1.25-0.5
			c-0.33-0.35-0.49-0.83-0.49-1.45c0-0.63,0.17-1.11,0.51-1.46c0.32-0.33,0.73-0.49,1.24-0.49c0.52,0,0.94,0.15,1.25,0.45
			C137.37,32.2,137.5,32.49,137.5,32.81z"/>
		<path class="st9" d="M138.94,33.96v1.34h-0.79v-3.7h1.74c0.37,0,0.66,0.11,0.87,0.32c0.21,0.21,0.31,0.5,0.31,0.87
			c0,0.26-0.07,0.5-0.22,0.71c-0.21,0.31-0.55,0.47-1,0.47H138.94z M138.94,33.32h0.74c0.25,0,0.43-0.08,0.52-0.23
			c0.05-0.08,0.07-0.2,0.07-0.35c0-0.18-0.05-0.31-0.16-0.39c-0.11-0.08-0.29-0.12-0.53-0.12h-0.64V33.32z"/>
	</g>
</g>
</svg>
