<?xml version="1.0" encoding="utf-8"?>
<!-- Generator: Adobe Illustrator 23.0.0, SVG Export Plug-In . SVG Version: 6.00 Build 0)  -->
<svg version="1.1" id="Layer_1" xmlns="http://www.w3.org/2000/svg" xmlns:xlink="http://www.w3.org/1999/xlink" x="0px" y="0px"
	 viewBox="0 0 204.35 194.82" style="enable-background:new 0 0 204.35 194.82;" xml:space="preserve">
<style type="text/css">
	.st0{fill:#FDD900;}
</style>
<g>
	<path class="st0" d="M83.21,116.44c-3.15,0.51-6.21,0.77-9.17,0.77c-2.52,0-4.96-0.19-7.32-0.56c-4.77-0.75-9.18-2.27-13.15-4.53
		c-0.96,0.67-2.12,1.06-3.37,1.06c-3.25,0-5.88-2.63-5.88-5.88s2.63-5.88,5.88-5.88s5.88,2.63,5.88,5.88c0,0.82-0.17,1.59-0.47,2.3
		c3.5,1.92,7.37,3.22,11.55,3.89c4.77,0.76,9.96,0.7,15.44-0.19c6.42-1.03,11.73-2.97,14.49-4.1c-10.97-2.05-50.81-9.28-43.21-59.06
		c-0.13-0.02-0.21-0.05-0.29-0.04c-0.5,0.08-1.01,0.15-1.51,0.25c-7.32,1.38-13.85,4.47-19.46,9.35c-8.51,7.4-13.35,16.74-14.44,28
		c-0.08,0.8-0.19,1.6-0.28,2.4c0,0.94,0,1.88,0,2.81c0.06,0.27,0.13,0.53,0.16,0.8c0.32,2.31,0.44,4.67,0.97,6.93
		c2.37,10.16,7.74,18.41,16.17,24.61c6.31,4.64,13.42,7.24,21.21,7.87c2.45,0.2,4.93,0.02,7.4-0.09c2.66-0.13,5.26-0.72,7.81-1.48
		c7.14-2.13,17.67-8.71,24.52-18.52C93.04,114.16,88.52,115.58,83.21,116.44z"/>
	<path class="st0" d="M84.42,89.38c-1.5-2.81-2.73-5.63-3.68-8.43c-0.81-2.39-1.42-4.76-1.83-7.11c-0.83-4.76-0.81-9.42,0.05-13.91
		c-0.94-0.69-1.69-1.66-2.09-2.85c-1.05-3.08,0.6-6.42,3.67-7.47c3.08-1.05,6.42,0.6,7.47,3.67c1.05,3.08-0.6,6.42-3.67,7.47
		c-0.77,0.26-1.56,0.36-2.33,0.3c-0.69,3.93-0.67,8.01,0.04,12.19C82.87,78,84.6,82.9,87.2,87.79c3.05,5.74,6.59,10.15,8.55,12.39
		c-1.59-11.05-7.59-51.08,41.97-59.94c-0.02-0.13-0.02-0.22-0.05-0.29c-0.23-0.45-0.47-0.9-0.72-1.35
		c-3.66-6.49-8.69-11.67-15.12-15.41c-9.75-5.67-20.15-7.24-31.16-4.64c-0.78,0.18-1.57,0.34-2.36,0.51
		c-0.89,0.3-1.78,0.6-2.66,0.91c-0.24,0.14-0.46,0.29-0.71,0.41c-2.09,1.04-4.28,1.92-6.25,3.15c-8.86,5.52-14.93,13.27-18.08,23.24
		c-2.36,7.47-2.52,15.04-0.61,22.61c0.6,2.38,1.57,4.68,2.47,6.97c0.98,2.48,2.38,4.75,3.92,6.91c4.32,6.07,13.94,13.91,25.44,17.24
		C89.75,97.95,86.95,94.12,84.42,89.38z"/>
	<path class="st0" d="M110.43,81.8c2.18-2.32,4.45-4.4,6.8-6.2c2-1.54,4.04-2.88,6.14-4.02c4.24-2.32,8.66-3.8,13.18-4.43
		c0.35-1.11,1.03-2.13,2.02-2.9c2.57-1.98,6.27-1.5,8.25,1.07c1.98,2.57,1.5,6.27-1.07,8.25c-2.57,1.98-6.27,1.5-8.25-1.07
		c-0.5-0.65-0.84-1.36-1.03-2.11c-3.94,0.62-7.8,1.94-11.52,3.97c-4.24,2.31-8.32,5.53-12.12,9.57c-4.45,4.73-7.48,9.51-8.97,12.09
		c9.95-5.07,45.91-23.66,70.27,20.41c0.11-0.06,0.2-0.09,0.25-0.14c0.35-0.37,0.7-0.74,1.04-1.11c4.96-5.56,8.24-11.99,9.71-19.28
		c2.23-11.05,0.35-21.41-5.65-30.99c-0.43-0.68-0.83-1.38-1.24-2.07c-0.57-0.74-1.15-1.49-1.72-2.23c-0.21-0.18-0.43-0.34-0.62-0.54
		c-1.66-1.64-3.2-3.43-5-4.9c-8.08-6.6-17.37-9.86-27.82-9.63c-7.83,0.17-15.05,2.46-21.6,6.71c-2.06,1.34-3.92,2.99-5.8,4.59
		c-2.03,1.73-3.73,3.78-5.28,5.94c-4.36,6.05-8.68,17.68-8.12,29.63C104.03,89.6,106.75,85.72,110.43,81.8z"/>
	<path class="st0" d="M125.99,103.97c2.9,1.31,5.6,2.8,8.06,4.43c2.1,1.39,4.03,2.9,5.79,4.51c3.56,3.27,6.39,6.97,8.45,11.05
		c1.17-0.03,2.35,0.29,3.4,0.98c2.71,1.8,3.45,5.45,1.65,8.16c-1.8,2.71-5.45,3.45-8.16,1.65c-2.71-1.8-3.45-5.45-1.65-8.16
		c0.45-0.68,1.02-1.24,1.66-1.66c-1.86-3.53-4.36-6.76-7.47-9.63c-3.55-3.27-7.92-6.09-12.96-8.38c-5.92-2.69-11.41-4.02-14.34-4.59
		c8.01,7.78,37.19,35.83,3.33,73.1c0.1,0.09,0.15,0.16,0.22,0.2c0.46,0.21,0.92,0.43,1.39,0.63c6.86,2.9,14.01,3.94,21.38,2.98
		c11.18-1.46,20.38-6.57,27.51-15.34c0.51-0.62,1.04-1.23,1.56-1.84c0.52-0.78,1.04-1.56,1.56-2.34c0.1-0.25,0.19-0.51,0.31-0.76
		c1.02-2.1,2.22-4.13,3.03-6.31c3.65-9.78,3.73-19.62,0.14-29.44c-2.69-7.35-7.18-13.45-13.32-18.29c-1.93-1.52-4.1-2.75-6.21-4.01
		c-2.29-1.37-4.78-2.31-7.33-3.08c-7.13-2.17-19.53-2.52-30.67,1.87C116.53,100.43,121.09,101.76,125.99,103.97z"/>
	<path class="st0" d="M110.01,125.85c-0.31,3.17-0.84,6.2-1.6,9.06c-0.64,2.44-1.45,4.75-2.4,6.93c-1.95,4.42-4.54,8.3-7.74,11.56
		c0.4,1.09,0.49,2.32,0.17,3.53c-0.83,3.14-4.05,5.02-7.19,4.19c-3.14-0.83-5.02-4.05-4.19-7.19c0.83-3.14,4.05-5.02,7.19-4.19
		c0.79,0.21,1.5,0.57,2.11,1.04c2.75-2.9,4.99-6.3,6.7-10.18c1.95-4.42,3.21-9.46,3.76-14.97c0.64-6.47,0.12-12.1-0.27-15.05
		c-4.79,10.09-21.93,46.76-68.12,26.72c-0.05,0.12-0.11,0.19-0.11,0.27c-0.05,0.51-0.11,1.01-0.15,1.52
		c-0.53,7.43,0.79,14.53,4.07,21.2c4.98,10.12,12.79,17.18,23.39,21.1c0.75,0.28,1.5,0.59,2.25,0.88c0.91,0.24,1.81,0.48,2.72,0.72
		c0.27,0.01,0.55,0.01,0.82,0.05c2.32,0.28,4.63,0.77,6.95,0.83c10.43,0.3,19.78-2.79,27.92-9.35c6.09-4.92,10.42-11.13,13.02-18.5
		c0.82-2.32,1.28-4.76,1.79-7.17c0.56-2.61,0.64-5.27,0.56-7.93c-0.24-7.45-3.92-19.3-11.66-28.43
		C110.31,115.76,110.53,120.5,110.01,125.85z"/>
</g>
</svg>
